<?xml version="1.0" encoding="UTF-8" standalone="no"?>
<!-- Created with Inkscape (http://www.inkscape.org/) -->
<svg
   xmlns:dc="http://purl.org/dc/elements/1.1/"
   xmlns:cc="http://web.resource.org/cc/"
   xmlns:rdf="http://www.w3.org/1999/02/22-rdf-syntax-ns#"
   xmlns:svg="http://www.w3.org/2000/svg"
   xmlns="http://www.w3.org/2000/svg"
   xmlns:xlink="http://www.w3.org/1999/xlink"
   xmlns:sodipodi="http://sodipodi.sourceforge.net/DTD/sodipodi-0.dtd"
   xmlns:inkscape="http://www.inkscape.org/namespaces/inkscape"
   inkscape:export-ydpi="72.000000"
   inkscape:export-xdpi="72.000000"
   inkscape:export-filename="/home/danny/work/kde/klettres/themes/klettres_savannah.png"
   sodipodi:docname="klettres_savannah.svg"
   sodipodi:docbase="/home/danny/work/kde/EDU/klettres/themes/NEW/savannah"
   inkscape:version="0.45"
   sodipodi:version="0.32"
   id="svg1"
   height="480.00000pt"
   width="640.00000pt"
   inkscape:output_extension="org.inkscape.output.svg.inkscape"
   sodipodi:modified="true">
  <defs
     id="defs3">
    <linearGradient
       id="linearGradient15125">
      <stop
         style="stop-color:#9d9b52;stop-opacity:1.0000000;"
         offset="0.0000000"
         id="stop15127" />
      <stop
         style="stop-color:#a28f41;stop-opacity:1.0000000;"
         offset="1.0000000"
         id="stop15129" />
    </linearGradient>
    <linearGradient
       id="linearGradient15111">
      <stop
         style="stop-color:#c2be5f;stop-opacity:1.0000000;"
         offset="0.0000000"
         id="stop15113" />
      <stop
         style="stop-color:#cdbb5e;stop-opacity:1.0000000;"
         offset="1.0000000"
         id="stop15115" />
    </linearGradient>
    <linearGradient
       id="linearGradient15602">
      <stop
         id="stop15603"
         offset="0.0000000"
         style="stop-color:#d0af1b;stop-opacity:1.0000000;" />
      <stop
         id="stop15604"
         offset="1.0000000"
         style="stop-color:#665114;stop-opacity:0.0000000;" />
    </linearGradient>
    <linearGradient
       id="linearGradient912">
      <stop
         id="stop913"
         offset="0.0000000"
         style="stop-color:#ffffff;stop-opacity:1.0000000;" />
      <stop
         id="stop914"
         offset="1.0000000"
         style="stop-color:#ffffff;stop-opacity:0.0000000;" />
    </linearGradient>
    <linearGradient
       id="linearGradient662">
      <stop
         id="stop663"
         offset="0.0000000"
         style="stop-color:#8c8040;stop-opacity:1.0000000;" />
      <stop
         id="stop664"
         offset="1.0000000"
         style="stop-color:#d8f1ba;stop-opacity:1.0000000;" />
    </linearGradient>
    <linearGradient
       id="linearGradient657">
      <stop
         id="stop658"
         offset="0.0000000"
         style="stop-color:#586780;stop-opacity:1.0000000;" />
      <stop
         id="stop659"
         offset="1.0000000"
         style="stop-color:#42938c;stop-opacity:1.0000000;" />
    </linearGradient>
    <linearGradient
       inkscape:collect="always"
       xlink:href="#linearGradient657"
       id="linearGradient4649"
       gradientUnits="userSpaceOnUse"
       gradientTransform="matrix(1.136993,0,0,-0.879513,0,600)"
       x1="572.50952"
       y1="95.437515"
       x2="183.33215"
       y2="929.53180" />
    <linearGradient
       inkscape:collect="always"
       xlink:href="#linearGradient662"
       id="linearGradient13551"
       gradientUnits="userSpaceOnUse"
       gradientTransform="matrix(-1.902482,-9.34704e-2,3.553785e-2,-0.523883,0,600)"
       x1="-301.60953"
       y1="641.93024"
       x2="11.490684"
       y2="1263.2281" />
    <linearGradient
       inkscape:collect="always"
       xlink:href="#linearGradient15111"
       id="linearGradient15117"
       gradientTransform="matrix(2.128901,0,0,-0.469726,0,600)"
       x1="222.22006"
       y1="952.43640"
       x2="222.22002"
       y2="1354.7067"
       gradientUnits="userSpaceOnUse" />
    <linearGradient
       inkscape:collect="always"
       xlink:href="#linearGradient15125"
       id="linearGradient15131"
       gradientTransform="matrix(1.31711,0,0,-0.759238,0,600)"
       x1="194.88550"
       y1="896.50958"
       x2="472.52863"
       y2="733.97107"
       gradientUnits="userSpaceOnUse" />
    <linearGradient
       inkscape:collect="always"
       xlink:href="#linearGradient15602"
       id="linearGradient2264"
       gradientUnits="userSpaceOnUse"
       gradientTransform="matrix(0.225249,-3.102978e-2,3.769258e-2,0.273615,685.044,-40.60913)"
       x1="101.37292"
       y1="291.35104"
       x2="451.26550"
       y2="280.46072" />
    <radialGradient
       inkscape:collect="always"
       xlink:href="#linearGradient912"
       id="radialGradient3277"
       cx="758.46875"
       cy="21"
       fx="758.46875"
       fy="21"
       r="41.53125"
       gradientTransform="matrix(0.6931648,-3.6907449e-7,2.637449e-7,0.5198313,232.72487,10.083837)"
       gradientUnits="userSpaceOnUse" />
    <linearGradient
       inkscape:collect="always"
       xlink:href="#linearGradient15602"
       id="linearGradient3285"
       x1="751.96875"
       y1="26.203125"
       x2="800"
       y2="26.203125"
       gradientUnits="userSpaceOnUse" />
    <linearGradient
       inkscape:collect="always"
       xlink:href="#linearGradient662"
       id="linearGradient3301"
       gradientUnits="userSpaceOnUse"
       gradientTransform="matrix(-1.902482,-9.34704e-2,3.553785e-2,-0.523883,0,600)"
       x1="-301.60953"
       y1="641.93024"
       x2="11.490684"
       y2="1263.2281" />
    <linearGradient
       inkscape:collect="always"
       xlink:href="#linearGradient662"
       id="linearGradient3308"
       gradientUnits="userSpaceOnUse"
       gradientTransform="matrix(-1.902482,-9.34704e-2,3.553785e-2,-0.523883,0,600)"
       x1="-301.60953"
       y1="641.93024"
       x2="11.490684"
       y2="1263.2281" />
    <linearGradient
       inkscape:collect="always"
       xlink:href="#linearGradient15125"
       id="linearGradient3310"
       gradientUnits="userSpaceOnUse"
       gradientTransform="matrix(1.31711,0,0,-0.759238,0,600)"
       x1="194.88550"
       y1="896.50958"
       x2="472.52863"
       y2="733.97107" />
    <linearGradient
       inkscape:collect="always"
       xlink:href="#linearGradient15111"
       id="linearGradient3312"
       gradientUnits="userSpaceOnUse"
       gradientTransform="matrix(2.128901,0,0,-0.469726,0,600)"
       x1="222.22006"
       y1="952.43640"
       x2="222.22002"
       y2="1354.7067" />
    <linearGradient
       inkscape:collect="always"
       xlink:href="#linearGradient15111"
       id="linearGradient3315"
       gradientUnits="userSpaceOnUse"
       gradientTransform="matrix(2.128901,0,0,-0.469726,0,600)"
       x1="222.22006"
       y1="952.43640"
       x2="222.22002"
       y2="1354.7067" />
    <linearGradient
       inkscape:collect="always"
       xlink:href="#linearGradient15125"
       id="linearGradient3318"
       gradientUnits="userSpaceOnUse"
       gradientTransform="scale(1.31711,0.759238)"
       x1="194.88550"
       y1="896.50958"
       x2="472.52863"
       y2="733.97107" />
    <linearGradient
       inkscape:collect="always"
       xlink:href="#linearGradient662"
       id="linearGradient3321"
       gradientUnits="userSpaceOnUse"
       gradientTransform="matrix(-1.902482,9.34704e-2,3.553785e-2,0.523883,0,0)"
       x1="-301.60953"
       y1="641.93024"
       x2="11.490684"
       y2="1263.2281" />
  </defs>
  <sodipodi:namedview
     inkscape:guide-bbox="true"
     showguides="true"
     inkscape:window-y="0"
     inkscape:window-x="0"
     inkscape:window-height="691"
     inkscape:window-width="1016"
     inkscape:current-layer="svg1"
     inkscape:cy="265.77115"
     inkscape:cx="462.82286"
     inkscape:zoom="0.72632014"
     inkscape:pageshadow="2"
     inkscape:pageopacity="0.0000000"
     borderopacity="1.0"
     bordercolor="#666666"
     pagecolor="#ffffff"
     id="base" />
  <metadata
     id="metadata4">
    <rdf:RDF>
      <cc:Work
         rdf:about="">
        <dc:format>image/svg+xml</dc:format>
        <dc:type
           rdf:resource="http://purl.org/dc/dcmitype/StillImage" />
        <dc:title>Savannah</dc:title>
        <dc:date>2007-04-21</dc:date>
        <dc:creator>
          <cc:Agent>
            <dc:title>Danny Allen</dc:title>
          </cc:Agent>
        </dc:creator>
        <cc:license
           rdf:resource="http://creativecommons.org/licenses/LGPL/2.1/" />
      </cc:Work>
      <cc:License
         rdf:about="http://creativecommons.org/licenses/LGPL/2.1/">
        <cc:permits
           rdf:resource="http://web.resource.org/cc/Reproduction" />
        <cc:permits
           rdf:resource="http://web.resource.org/cc/Distribution" />
        <cc:requires
           rdf:resource="http://web.resource.org/cc/Notice" />
        <cc:permits
           rdf:resource="http://web.resource.org/cc/DerivativeWorks" />
        <cc:requires
           rdf:resource="http://web.resource.org/cc/ShareAlike" />
        <cc:requires
           rdf:resource="http://web.resource.org/cc/SourceCode" />
      </cc:License>
    </rdf:RDF>
  </metadata>
  <g
     id="layer1"
     inkscape:groupmode="layer"
     inkscape:label="Layer 1" />
  <path
     style="color:#000000;fill:url(#linearGradient4649);fill-opacity:1;fill-rule:evenodd;stroke:none;stroke-width:5;stroke-linecap:round;stroke-linejoin:round;marker:none;marker-start:none;marker-mid:none;marker-end:none;stroke-miterlimit:4;stroke-dashoffset:0;stroke-opacity:1"
     d="M 0,0 L 0,600 L 800,600 L 800,0 L 0,0 z "
     id="sky" />
  <g
     id="sun">
    <path
       id="path910"
       d="M 706.5625,0 C 704.34837,6.7100336 703.125,13.85156 703.125,21.28125 C 703.125,59.48111 734.74957,90.468752 773.71875,90.46875 C 783.00696,90.46875 791.87482,88.700172 800,85.5 L 800,0 L 706.5625,0 z "
       style="opacity:0.7;fill:#ff9e00;fill-opacity:0.9807692;fill-rule:evenodd;stroke-width:1.30840731;stroke-linejoin:round" />
    <path
       sodipodi:nodetypes="cccccc"
       id="path10448"
       d="M 626.20374,18.594614 C 626.64316,23.272491 624.15953,28.671041 628.61817,31.411915 C 637.94023,34.460576 660.09935,34.349967 676.85992,34.517205 C 684.98093,33.89028 688.93931,22.601502 682.67912,17.352517 C 677.86233,12.865468 670.85727,14.88225 664.91924,14.255498 C 657.95467,14.101936 624.70251,12.981202 626.20374,18.594614 z "
       style="opacity:0.7;fill:#ff9e00;fill-opacity:0.9807692;fill-rule:evenodd;stroke:none;stroke-width:1.25;stroke-linecap:round;stroke-linejoin:round;stroke-opacity:1" />
    <path
       id="path10449"
       d="M 689.50406,52.457764 C 687.8923,52.498231 686.31305,52.911052 684.89474,53.662652 C 665.5182,63.447455 655.5906,68.346655 650.58089,70.731909 C 648.24696,71.843155 647.13871,72.299578 646.58614,72.53924 C 646.54567,72.556792 646.31173,72.625599 646.27885,72.639648 C 641.46614,74.190955 638.53309,78.957847 639.37843,83.854446 C 640.22377,88.751044 644.59358,92.306466 649.65902,92.219085 C 649.65902,92.219085 651.00431,92.188143 651.40032,92.118677 C 651.79634,92.049211 652.10257,91.975958 652.32219,91.917865 C 652.76143,91.801675 653.01524,91.697769 653.24405,91.616641 C 653.70167,91.45439 653.99712,91.31803 654.47321,91.114605 C 655.42537,90.707749 656.84945,90.063538 659.49225,88.805234 C 664.77783,86.288631 674.86682,81.357786 694.31825,71.535165 C 698.67987,69.469526 700.96933,64.691481 699.80614,60.08205 C 698.64295,55.472616 694.3451,52.291895 689.50406,52.457764 L 689.50406,52.457764 z "
       style="opacity:0.7;fill:#ff9e00;fill-opacity:0.9807692;fill-rule:evenodd;stroke:none;stroke-width:1.25;stroke-linecap:round;stroke-linejoin:round;stroke-opacity:1" />
    <path
       id="path10450"
       d="M 718.79888,90.512161 C 716.16861,90.601873 713.67447,91.680506 711.83368,93.524381 C 694.22484,110.78561 685.33926,119.17006 681.10485,123.04415 C 679.45477,124.55382 679.06023,124.90577 678.64655,125.25311 C 678.6286,125.26818 678.55989,125.34035 678.54412,125.35352 C 675.40186,127.1798 673.4895,130.50819 673.52508,134.08896 C 673.52508,134.08896 673.93466,137.10076 673.93479,137.10118 C 673.93493,137.1016 676.29013,140.9161 676.29067,140.91666 C 676.29121,140.91722 680.2842,143.52683 680.28542,143.52725 C 680.28663,143.52767 683.76587,144.1297 683.76802,144.1297 C 683.77017,144.1297 685.37059,144.04358 685.91904,143.92888 C 686.46748,143.81419 686.80486,143.64692 687.14819,143.52725 C 687.83486,143.28793 688.25223,143.09732 688.5822,142.92481 C 689.90206,142.23478 690.13826,142.00575 690.63079,141.61951 C 691.61584,140.84703 692.84261,139.8034 695.13768,137.70363 C 699.72782,133.50407 708.58691,125.12234 726.27622,107.78223 C 729.33627,104.89513 730.26154,100.45647 728.60223,96.624042 C 726.94292,92.791613 723.04321,90.360345 718.79888,90.512161 L 718.79888,90.512161 z "
       style="opacity:0.7;fill:#ff9e00;fill-opacity:0.9807692;fill-rule:evenodd;stroke:none;stroke-width:1.25;stroke-linecap:round;stroke-linejoin:round;stroke-opacity:1" />
    <path
       sodipodi:nodetypes="cccccccccc"
       id="path10451"
       d="M 777.49093,103.16349 C 774.77368,103.26817 772.21038,104.42763 770.3659,106.38637 C 768.52141,108.34512 767.54712,110.94239 767.65771,113.60586 C 768.08179,130.65008 764.18093,151.23862 769.46021,158.24796 C 775.54225,160.89773 779.02737,160.59651 779.02737,160.59651 L 787.24296,157.74593 C 789.27031,151.12151 789.32019,140.51906 788.14359,113.10382 C 788.11781,110.38734 786.97036,107.797 784.96309,105.92395 C 782.95582,104.05091 780.26003,103.05499 777.49093,103.16349 L 777.49093,103.16349 z "
       style="opacity:0.7;fill:#ff9e00;fill-opacity:0.9807692;fill-rule:evenodd;stroke:none;stroke-width:1.25;stroke-linecap:round;stroke-linejoin:round;stroke-opacity:1" />
    <path
       id="path911"
       d="M 716.96875,0 C 716.95355,0.44654835 716.9375,0.89368828 716.9375,1.34375 C 716.9375,23.788448 736.00382,41.999999 759.46875,42 C 778.46249,42 794.55511,30.046134 800,13.59375 L 800,0 L 716.96875,0 z "
       style="opacity:0.3;fill:url(#radialGradient3277);fill-opacity:1;fill-rule:evenodd;stroke:none;stroke-width:1pt" />
    <path
       id="path920"
       style="opacity:0.7;fill:url(#linearGradient2264);fill-opacity:1;fill-rule:evenodd;stroke:none;stroke-width:1pt;stroke-linecap:butt;stroke-linejoin:miter;stroke-opacity:1"
       d="M 739.191,12.322563 L 733.55034,19.575628 L 740.45318,27.589708 C 739.71629,29.342899 739.19111,31.188297 738.88887,33.095255 L 728.95629,37.100765 L 730.07335,45.20966 L 740.85207,46.939414 C 741.62034,48.571258 742.56884,50.090428 743.66563,51.490766 L 738.77618,60.185229 L 746.5769,65.937752 L 753.44101,58.960886 C 755.46843,59.828257 757.6203,60.439365 759.86309,60.752431 L 763.71155,71.130083 L 772.40502,69.932492 L 772.80238,59.211823 C 774.90811,58.380708 776.85512,57.275634 778.6179,55.960727 L 787.54604,60.652856 L 793.09072,52.702992 L 791.26986,49.40257 L 787.42138,51.64146 L 781.53415,46.024415 C 778.52001,51.444332 773.01647,55.468371 766.29502,56.394301 C 755.10201,57.936223 744.79611,50.336295 743.29405,39.432576 C 742.2289,31.700541 745.89218,24.392999 752.09501,20.235563 L 751.43469,15.442203 C 750.5113,15.950088 749.63545,16.521472 748.79217,17.132644 L 739.191,12.322563 z " />
    <path
       id="path1553"
       d="M 779.125,0 L 767.03125,22.28125 L 764.6875,0.75 L 751.96875,3.90625 L 758.65625,52.40625 L 771.46875,49.75 L 768.75,29.15625 L 787.71875,49.4375 L 800,43.46875 L 800,43.1875 L 780.90625,23.5625 L 780.84375,23.3125 L 793.8125,0.9375 L 788.40625,0 L 779.125,0 z "
       style="opacity:0.7;fill:url(#linearGradient3285);fill-opacity:1;fill-rule:evenodd;stroke:none;stroke-width:1pt;stroke-linecap:butt;stroke-linejoin:miter;stroke-opacity:1" />
  </g>
  <path
     style="fill:#000000;fill-opacity:0.5955056;fill-rule:evenodd;stroke:none;stroke-width:0.9999999pt;stroke-linecap:butt;stroke-linejoin:miter;stroke-opacity:1"
     d="M 754.75,220.90625 C 753.92949,220.88513 753.04478,221.21507 752.34375,221.375 C 750.71745,221.74573 748.86474,221.56448 747.1875,221.90625 C 741.30983,223.10361 735.91988,226.14852 731.78125,228.65625 C 730.05318,229.70311 728.52283,231.10155 726.4375,231.9375 C 724.72287,232.62473 721.97381,232.48036 719.96875,232.78125 C 718.00716,233.07541 716.57609,233.89047 714.71875,234.25 C 713.31577,234.52132 711.48163,234.50118 710,234.53125 C 710.72186,234.32728 712.01529,234.0185 711.71875,233.4375 C 711.33647,232.6883 709.01261,232.7981 708.09375,232.3125 C 706.57564,231.51056 706.19163,229.90531 706.1875,228.8125 L 704.9375,227.875 L 704.46875,225.03125 L 705.84375,225.78125 C 705.8505,225.20122 705.97112,224.63746 706.09375,224.0625 C 706.28415,223.17049 705.52827,221.13384 703.09375,222.3125 C 701.82484,222.92671 701.42198,223.97908 700.84375,224.8125 C 700.61152,225.14712 700.20621,225.85586 699.3125,225.6875 C 697.00593,225.25274 697.22193,222.73435 695.875,221.78125 C 696.08906,222.74256 697.23722,224.27037 694.5,223.6875 L 698.96875,226.71875 L 684.84375,224.8125 C 686.27976,226.66664 690.57754,227.44336 693.8125,227.96875 C 694.49738,228.0797 697.5,228.31464 697.5,228.84375 C 697.5002,229.36692 695.49225,229.94987 694.84375,230.21875 C 692.70591,231.1053 689.51454,232.05114 688.28125,233.40625 C 691.44511,233.09562 695.04449,231.45115 697.59375,230.40625 C 698.65991,229.96918 699.9899,229.18444 701.34375,229.0625 C 703.07453,228.9064 704.77817,230.77717 705.25,231.5 C 705.47582,231.84507 705.74947,232.31936 705.21875,232.625 C 704.34111,233.13058 702.20807,233.22936 701.03125,233.4375 C 698.00043,233.97372 693.42206,234.81369 691.75,236.4375 C 695.55792,236.16934 699.26162,235.51736 703.09375,235.21875 C 703.88022,235.15722 706.23763,234.75958 706.84375,235.15625 C 707.24601,235.41937 706.51692,235.86958 706.25,236.0625 C 705.32415,236.73069 704.23842,237.32947 703.25,237.96875 C 699.80765,240.19545 698.08374,242.63204 696.4375,245.375 C 695.94525,246.19536 695.46759,247.04472 695.03125,247.875 C 694.85792,248.20481 694.74692,248.74059 694.15625,248.9375 C 693.41294,249.1852 692.05688,248.71694 691.375,248.5625 C 689.17074,248.06296 686.91594,247.51582 684.5,247.5 C 683.36164,247.49236 682.13625,247.45729 681.09375,247.75 C 680.47498,247.92325 679.87882,248.38338 679.15625,248.40625 C 677.9262,248.44506 676.52404,247.79738 675.21875,247.71875 C 672.40677,247.54884 669.94415,247.91298 667.28125,248.34375 C 665.90716,248.56574 664.51352,248.77875 663.15625,249.03125 C 662.81123,249.09521 661.9375,249.25854 661.9375,249.53125 C 661.93752,249.97777 664.38148,249.96209 664.875,249.96875 C 668.2005,250.01365 671.51725,249.96875 674.84375,249.96875 C 673.14071,250.49981 671.11912,250.482 669.34375,250.9375 C 663.75975,252.37009 658.97421,254.36197 655.09375,257 C 653.94227,257.78265 652.52185,258.56956 651.78125,259.5 L 670.03125,253.78125 C 669.3001,254.57378 668.66147,255.39903 667.5625,256.0625 C 664.53253,257.89136 660.29136,259.34107 658.6875,261.78125 L 674.84375,257.1875 C 672.74015,260.03022 668.93689,262.60884 668.3125,265.75 L 672.40625,263.28125 L 677.5,259.5 L 682.09375,255.46875 L 684.0625,261 L 684.46875,263.15625 L 679.34375,265.1875 L 686.5625,264.28125 L 693.46875,264.21875 L 698.34375,263.875 L 697.15625,265 L 691.03125,264.8125 L 691.03125,265.1875 L 694.5,265.5625 C 688.72329,267.46371 684.52385,269.95564 680.28125,272.8125 C 678.10647,274.27669 675.53942,276.40441 675.21875,278.34375 L 682.4375,274.34375 L 696.5625,267.46875 C 695.23472,271.41655 695.70143,275.13982 696.21875,279.09375 C 697.9158,277.44935 698.23253,275.33312 699.40625,273.5625 C 699.83659,272.91365 700.2087,272.0948 701.1875,271.625 C 702.53194,270.97997 705.50395,270.83394 707.21875,270.65625 C 707.7577,270.60023 709.10994,270.49764 709.09375,271 C 709.08065,271.40577 708.36909,271.76007 707.90625,272.03125 C 706.52382,272.8411 704.8601,273.52129 703.5,274.34375 C 699.61549,276.69347 696.45665,279.20373 695.1875,282.34375 L 703.78125,277.78125 L 712.0625,273.9375 L 707.53125,281.9375 L 706.53125,288.25 C 709.73449,285.55513 709.67882,281.61251 714.125,279.28125 L 714.8125,284.0625 L 714.125,283.09375 L 711.375,282.71875 L 714.59375,285.75 L 716.0625,292.625 L 717.15625,295.84375 L 717.21875,300.625 L 717.34375,302.4375 C 718.21892,302.06052 719.10683,301.70085 720,301.34375 L 719.96875,301.1875 C 720.02177,301.21082 720.09947,301.25739 720.15625,301.28125 C 720.93183,300.97252 721.71208,300.66877 722.5,300.375 L 720.21875,299.21875 L 719.9375,297.5625 L 720.78125,292.625 L 721.46875,288.625 L 723.25,285.03125 L 733.40625,281.375 L 725.46875,283.28125 C 725.99681,281.63095 728.95617,279.45041 732.03125,279.0625 C 732.26241,279.03328 732.52838,279.02388 732.8125,279.03125 C 734.80133,279.08282 737.79954,279.97875 737.8125,281 C 737.83741,283.03394 736.07829,285.06338 735.84375,287.09375 C 735.67242,288.57431 736.26059,290.00131 736.15625,291.46875 C 736.04092,293.08582 735.45809,294.81026 734.875,296.46875 C 736.10746,296.14675 737.34879,295.85193 738.59375,295.5625 L 741.4375,290.71875 L 741.6875,286.15625 L 742.21875,283.46875 L 742.75,282.5625 L 744.78125,282.90625 L 749.59375,284.4375 L 745.125,281.21875 L 743.15625,279.5 L 745.625,278.375 L 754.75,275.46875 C 752.6376,275.63746 750.90962,276.38151 748.90625,276.75 C 747.70473,276.97087 746.71973,277.05574 746.5,276.25 L 743.625,277.9375 L 743.3125,276.4375 L 744.3125,271.84375 L 745.3125,269.78125 L 747.53125,270.28125 L 752.6875,272.0625 L 748.53125,268.9375 L 745.25,266.71875 L 746.28125,264.25 L 747.1875,263.5625 L 752.34375,267.09375 L 749.25,261.78125 L 754.28125,262.1875 L 758.5625,264.8125 L 767.84375,268.84375 L 773,271.09375 C 770.87635,267.74575 765.54178,265.53599 762,262.71875 L 769.71875,264.40625 L 770.78125,266.15625 L 772.34375,268.25 L 780.8125,274.71875 L 786.78125,279.875 C 786.49908,275.72604 782.7186,270.91614 778.71875,267.46875 C 777.7619,266.6436 776.40568,265.99262 775.40625,265.1875 L 780.25,265.96875 L 776.46875,264.25 L 786.78125,267.84375 L 799.1875,271.28125 L 800,271.46875 L 800,269.8125 C 799.26543,269.52898 798.51503,269.25547 797.8125,268.96875 C 793.28464,267.12057 789.11207,264.97992 783.6875,263.9375 C 782.34731,263.67982 780.98698,263.37611 779.5625,263.3125 C 777.14442,263.20431 774.84183,263.43781 772.65625,262.71875 L 783,262.03125 L 800,261.21875 L 800,261 C 797.73566,260.31613 794.78742,260.06724 792.3125,259.875 C 785.80527,259.36898 780.12876,259.58617 773.6875,260.25 L 781.625,256.0625 C 778.60485,256.38353 775.82825,256.93509 773.34375,257.96875 C 772.23848,258.4284 770.44816,259.8125 769,259.8125 C 767.75312,259.81209 766.50081,258.6373 765.75,258.1875 C 765.47265,258.02081 764.64204,257.65151 764.90625,257.375 C 765.1558,257.11388 766.01581,257.07124 766.46875,257.03125 C 767.96152,256.89945 769.4256,256.81421 770.9375,256.8125 L 762.34375,256.0625 L 754.40625,253.0625 L 750.34375,251.78125 L 749.625,251 L 751.65625,250.46875 L 757.5,250.03125 L 762.6875,249.78125 C 759.74343,248.95057 755.56596,249 752.34375,249 L 768.1875,244.4375 C 763.65615,244.43728 759.52274,245.29946 755.09375,245.5 C 753.68457,245.56376 751.59814,245.09172 751.25,244.25 C 750.95093,243.52769 752.16584,242.43712 752.65625,241.78125 C 753.13443,241.14178 753.61339,240.49009 754.1875,239.875 C 755.09314,238.90509 756.72573,238.43641 757.875,237.59375 L 755.4375,237.78125 L 758.96875,233 L 760.71875,231.5625 L 764.59375,233.40625 L 773,238.53125 C 772.06107,236.05426 769.25383,233.78795 766.84375,231.6875 C 764.74968,229.86222 762.86492,227.98062 760.28125,226.34375 L 771.625,227.375 L 782.3125,228.0625 C 780.55664,226.87478 777.29817,226.09008 774.75,225.5625 C 771.06069,224.79845 767.34624,224.05742 763.375,223.90625 C 761.50862,223.83496 759.71817,224.03463 757.875,224.03125 C 754.28267,224.0244 757.30901,221.81244 755.53125,221.0625 C 755.28107,220.95668 755.02364,220.91322 754.75,220.90625 z M 747.53125,225.59375 L 745.40625,228.25 L 743.0625,232.25 L 749.59375,228.4375 L 749.84375,232.4375 L 748.8125,234.15625 L 749.21875,236.0625 L 748.53125,239.875 L 747.1875,243.25 L 744.4375,243.15625 L 737.875,242.46875 L 729.75,243.25 L 726.84375,241.84375 L 723.75,241.3125 L 721.75,241.125 L 721,239.6875 L 719.28125,236.0625 L 733.75,240.4375 L 725.15625,234.71875 L 741.6875,234.90625 L 738.5625,234.03125 L 727.90625,232.4375 C 730.30994,230.50198 734.30979,229.43679 737.875,228.28125 C 740.96055,227.28091 744.03561,226.10613 747.53125,225.59375 z M 754.90625,227.1875 L 756.125,228.0625 L 755.65625,230.90625 L 752.96875,238.71875 L 750.625,241.96875 L 752.125,236.0625 L 753.34375,234.34375 L 752.78125,232.8125 L 753.09375,230.71875 L 754.0625,228.0625 L 754.90625,227.1875 z M 579.8125,228.40625 C 579.12353,228.39661 578.53566,229.10878 578.625,230.65625 C 578.81852,234.00837 578.40191,234.93763 575.15625,235.125 C 572.2869,235.29064 570.94569,236.5291 571.09375,239.09375 C 568.57615,241.91982 575.09775,243.72646 575.1875,245.28125 C 575.59477,252.33549 565.62623,246.29553 565.9375,251.6875 C 566.14039,255.20239 583.91596,257.21175 584.0625,259.75 C 582.61147,261.37884 566.47214,265.54723 565.125,265.625 C 562.92664,268.09273 560.4123,266.97073 558.28125,267.09375 C 556.20986,267.21334 553.05708,269.47766 552.9375,267.40625 C 552.79686,264.96979 550.7389,269.88042 550.4375,270.21875 C 549.13022,273.26002 546.98888,272.02217 544.125,272.1875 C 539.79412,272.4375 543.56484,276.5132 546.5,276.34375 C 549.3761,276.17774 552.31183,274.86556 552.5,278.125 C 552.6025,279.90121 548.93246,278.33496 547.15625,278.4375 C 544.56337,278.58722 542.42704,278.75852 545.75,281.71875 C 547.76779,283.51629 559.18832,282.70422 566.5625,281.625 C 557.71044,283.5798 540.49312,287.91934 542.34375,287.8125 C 546.14145,287.59327 542.84684,290.44472 547.84375,290.15625 C 553.31601,289.84031 548.55912,293.27511 548.59375,293.875 C 545.75552,294.03883 543.02679,293.10716 541.09375,293.21875 C 537.71457,293.41384 533.51404,294.59755 530.84375,292.21875 C 528.44458,292.35727 526.5796,293.53799 524.53125,293.65625 C 520.32464,293.89909 522.18545,295.60247 518.5625,292.375 C 518.42902,290.06243 515.14006,297.39057 514.625,297.96875 C 512.40656,298.09682 507.75991,299.64839 507.53125,295.6875 C 503.3277,295.93019 504.00398,293.43214 501.1875,296.59375 C 501.30194,298.57621 496.30561,303.40955 494.75,306.0625 C 492.72786,310.76658 484.43265,312.39692 484.59375,315.1875 C 486.30199,315.08889 488.84057,316.0003 492.09375,315.8125 C 495.53053,311.95456 499.16283,312.76179 503.15625,312.53125 C 505.69644,312.38461 509.16627,308.87479 512.65625,310.375 C 515.53887,310.2086 518.5198,308.9629 521.125,308.8125 C 523.80487,308.65779 525.71991,308.00786 528.5625,307.84375 C 530.75936,307.71693 534.06143,308.2106 536.34375,308.3125 C 538.07867,308.76633 540.49723,309.30737 541.25,309.625 C 555.29825,315.05932 554.91238,314.58648 569.375,318.65625 C 571.8154,319.37389 578.11931,323.7003 582.03125,325.8125 C 582.25863,326.82087 582.67011,328.47988 582.6875,328.78125 C 582.84863,331.57204 580.93868,334.2302 581.0625,336.375 C 581.20783,338.89263 582.54773,341.34195 582.96875,343.84375 C 586.33732,343.05893 589.08704,341.54825 590.78125,338.90625 C 592.35655,336.44969 593.01886,334.28586 594.03125,332.4375 C 593.36316,327.39426 591.6476,315.7679 593.875,309.4375 C 598.64133,302.0579 603.30642,297.01979 603.3125,297.125 C 603.5179,300.68311 608.02706,298.97981 608.21875,298.96875 C 608.11622,297.19254 613.66504,300.43247 613.5625,298.65625 C 614.13192,298.62338 611.21314,293.46017 614.3125,293.28125 C 617.91543,293.07325 613.82668,297.57141 616.6875,297.40625 C 620.65639,297.17713 615.23793,302.2869 619.125,302.0625 C 623.17882,301.82847 618.62877,290.36222 620.03125,290.28125 C 623.40303,290.08661 628.66016,294.5702 631.5,294.40625 C 632.97191,292.75398 634.64301,293.49838 634.53125,291.5625 C 634.31191,287.76324 637.33258,287.66481 640.1875,287.5 C 640.38176,290.86516 646.0097,286.62908 641.75,286.875 C 639.23783,287.02002 649.68295,281.38086 650.96875,279.9375 C 653.2606,279.80518 647.0714,277.15208 646.875,273.75 C 646.78389,272.17161 635.16563,274.65027 635,271.78125 C 637.51301,271.63616 621.48087,271.03899 617.5625,275.4375 C 610.45851,275.31296 615.07826,269.51083 614.90625,266.53125 C 614.77072,264.18286 637.46664,259.34638 637.25,255.59375 C 637.13595,253.61796 633.6625,252.04345 632.25,252.125 C 629.68747,252.27294 631.04562,255.42932 627.65625,255.625 C 624.52378,255.80583 625.58881,257.28737 625.40625,254.125 C 625.14784,249.64933 623.74155,251.02743 620.96875,251.1875 C 621.10831,253.60413 619.20519,257.51312 619.03125,254.5 C 618.88769,252.01328 618.73731,249.5492 618.59375,247.0625 C 616.00413,247.21201 613.45644,246.26869 612.15625,246.34375 C 611.98883,243.44394 598.01766,247.708 595.125,247.875 C 592.98884,247.99832 603.16639,239.04939 603.0625,237.25 C 599.1377,237.47657 598.24558,236.96246 598.03125,233.25 C 597.86459,230.363 594.70938,231.74184 594.53125,228.65625 C 591.75156,228.81672 590.72094,227.21867 591.03125,232.59375 C 591.22673,235.97945 588.70733,235.39718 585.84375,235.5625 C 585.70388,233.13995 583.5385,231.40397 581.875,231.5 C 581.77677,229.79861 580.9094,228.70583 580.09375,228.46875 C 579.99179,228.43911 579.91092,228.40763 579.8125,228.40625 z M 758.03125,229.46875 C 759.27541,229.46856 759.4539,230.42793 759.25,230.90625 C 758.7177,232.15581 757.73711,233.96094 756.125,234.90625 C 756.12657,233.26148 756.88813,232.4336 758.53125,231.09375 C 756.65963,231.22455 756.88441,229.46875 758.03125,229.46875 z M 712.40625,236.0625 C 713.97317,237.54106 714.02994,239.54084 714.71875,241.1875 C 714.83193,241.45817 715.55601,242.75 714.46875,242.75 C 713.65034,242.74988 713.75587,241.48573 713.5,241.1875 C 712.01344,239.45541 710.16425,237.85424 712.40625,236.0625 z M 709.125,238.8125 L 709.96875,239.6875 L 710.15625,241.78125 L 710.625,243.78125 L 706.875,245.15625 L 699.65625,249 L 708.625,247.15625 L 711.8125,246.875 L 712.59375,249.375 L 712.34375,250.125 L 708.625,249.78125 C 709.77837,250.46338 711.82373,250.72325 712.6875,251.53125 C 713.23761,252.04597 713.18853,252.82526 713.3125,253.40625 C 713.61399,254.81886 713.76883,256.35871 713.78125,257.78125 C 713.78619,258.36984 713.95282,259.06914 713.53125,259.625 C 713.08441,260.21322 711.89361,260.56159 711.03125,260.9375 C 709.8393,261.45677 708.75309,262.0411 707.5625,262.5625 C 706.96394,262.82433 705.94583,263.3136 705.1875,262.9375 C 703.1923,261.94725 704.53737,259.91502 704.8125,258.71875 L 703.4375,259.5 C 703.38644,258.03938 701.76639,257.05151 699.65625,256.25 L 701.71875,259.28125 L 695.0625,254.8125 L 684.84375,250.53125 L 691.375,251.40625 L 704.125,253.59375 L 698.625,250.84375 L 695.875,249.53125 L 697.59375,246.90625 L 705.21875,241 L 709.125,238.8125 z M 725.8125,244.4375 C 726.22443,244.45581 726.56047,244.52223 726.78125,244.65625 C 727.39511,245.02872 726.68418,245.78413 726.40625,246.15625 C 725.46723,247.41366 724.97912,248.88976 723.40625,249.96875 C 722.64668,248.6439 721.74632,246.65694 722.53125,245.28125 C 722.80768,244.79645 724.57614,244.38201 725.8125,244.4375 z M 737.1875,245 C 739.55368,245.20927 741.65299,245.93066 744.09375,245.96875 C 744.8268,245.97996 746.15911,245.85106 746.59375,246.28125 C 747.59333,247.27035 743.84949,248.60839 742.8125,249.15625 C 742.36597,249.39181 741.76981,249.7046 741.09375,249.65625 C 740.27841,249.59758 739.98462,248.97464 739.71875,248.625 C 738.83002,247.45518 737.7971,246.22238 737.1875,245 z M 716.1875,245.9375 C 717.96311,245.78349 718.44628,247.96784 718.96875,248.625 C 720.89818,251.05211 724.34946,253.53911 719.28125,255.46875 L 718.125,252.0625 L 717.59375,250.75 L 716.875,251.28125 C 713.87685,250.96327 714.80733,249.02776 714.8125,247.6875 C 714.81475,247.06064 714.69526,246.06681 716.1875,245.9375 z M 733.0625,247.09375 C 733.91436,247.42261 734.59622,247.81849 735.28125,248.25 C 736.13481,248.78759 738.17945,249.65655 738,250.46875 C 737.87514,251.03224 735.91751,251.34738 735.21875,251.6875 C 733.42044,252.56195 731.55923,253.70684 731.375,255.09375 C 731.19363,256.45531 731.44027,257.77331 732.03125,259.09375 C 732.18153,259.42927 732.66651,260.27952 731.96875,260.53125 C 731.10173,260.84374 728.3777,259.66123 727.5625,259.4375 C 726.65206,259.18744 724.02524,258.93468 723.625,258.375 C 723.28837,257.90385 724.41092,257.1848 724.8125,256.8125 C 726.28084,255.44997 727.83288,254.08276 728.96875,252.625 C 730.35471,250.84578 732.0548,248.93996 733.0625,247.09375 z M 682.78125,248.4375 C 686.52116,248.47261 690.44876,249.36733 693.8125,250.21875 C 695.20638,250.57149 696.81377,250.91272 697.9375,251.5 L 688.96875,249.5 L 682.78125,248.4375 z M 684.84375,251.5 C 687.88731,252.11135 692.25616,253.88513 693.8125,255.46875 L 688.21875,253.28125 L 686.1875,252.90625 L 684.84375,251.5 z M 742.34375,251.6875 C 746.15194,251.76984 751.86947,253.16184 754.75,254.53125 L 748.21875,253 L 742.34375,251.6875 z M 679.125,251.84375 C 679.23455,251.84321 679.33298,251.858 679.4375,251.875 C 680.18948,251.99725 680.30128,252.65112 680.25,253 C 680.12201,253.87085 678.39639,254.71507 676.9375,254.9375 C 675.31453,255.18487 673.1327,255.13044 671.40625,255.28125 C 672.81003,254.15144 674.91382,253.21676 676.9375,252.4375 C 677.40795,252.25608 678.09957,251.9635 678.78125,251.875 C 678.89476,251.86016 679.01545,251.84429 679.125,251.84375 z M 716.375,252.40625 C 717.11559,252.57193 717.47921,253.90279 717.59375,254.15625 C 718.30855,255.73973 718.11266,257.15146 715.84375,258.34375 C 715.84359,256.8725 715.5637,255.43184 715.5,253.96875 C 715.48435,253.60906 715.22441,252.62772 716,252.4375 C 716.12044,252.40778 716.2692,252.38255 716.375,252.40625 z M 742.71875,253.40625 L 745.375,254.25 L 744.78125,255.6875 L 743.1875,254.34375 L 742.71875,253.40625 z M 683.8125,254.34375 C 684.57726,255.2649 685.2704,257.4034 684.5,258.34375 L 683.8125,254.34375 z M 679.6875,255.09375 C 679.9546,256.1503 676.98487,258.26316 675.5625,258.90625 L 679.6875,255.09375 z M 750.28125,255.21875 L 755.78125,256.8125 L 749.9375,258.03125 L 747.4375,258.53125 L 746.96875,257.75 L 748.0625,255.375 L 750.28125,255.21875 z M 687.4375,255.375 C 688.22139,255.30875 689.40979,255.66965 690.03125,255.6875 C 694.44184,255.81433 698.15299,257.29804 700,259.5 L 688.96875,258.53125 L 698.625,261.78125 C 696.27852,261.78107 694.06019,261.77626 691.75,262.03125 C 690.70155,262.14683 688.88625,262.56181 687.84375,262.34375 C 686.98296,262.16339 687.25033,261.1987 687.25,260.8125 C 687.24918,259.68382 687.44454,258.49455 687.15625,257.375 C 687.02599,256.86866 686.39228,256.11726 686.84375,255.625 C 686.97861,255.47808 687.17629,255.39701 687.4375,255.375 z M 737.1875,255.65625 C 738.94202,256.56233 740.35831,257.93305 741.5,259.09375 C 741.93099,259.53212 742.58955,260.06948 742.375,260.59375 C 742.13823,261.1719 740.97574,261.51326 740.4375,262 C 739.89759,262.48787 739.49525,263.70691 738.15625,263.6875 C 736.60452,263.66461 735.299,262.5502 735.21875,261.78125 C 735.13831,261.01247 735.75445,260.24726 736,259.5 C 736.41857,258.22431 736.67604,256.92432 737.1875,255.65625 z M 720.34375,256.5625 C 721.61996,256.56909 721.1613,258.29197 720.125,258.59375 C 716.9347,259.52177 717.67794,257.26714 719.6875,256.65625 C 719.94486,256.5778 720.16142,256.56154 720.34375,256.5625 z M 759.625,258.15625 C 762.45966,258.24082 765.22502,259.25823 766.46875,260.8125 L 754.75,259.09375 C 756.19366,258.38233 757.92433,258.10541 759.625,258.15625 z M 718.96875,261 C 719.7571,261.08892 719.34218,262.029 719.25,262.34375 C 718.83383,263.76447 718.28137,265.28041 718.25,266.71875 C 718.24441,266.97401 718.50295,268.34375 717.71875,268.34375 C 716.60004,268.34363 716.86017,266.7128 716.78125,266.34375 C 716.48704,264.96567 715.25696,261.54029 718.5625,261.03125 C 718.72917,261.00555 718.85613,260.9873 718.96875,261 z M 713.25,262.8125 C 713.37869,262.80733 713.50502,262.82411 713.625,262.84375 C 714.28234,262.95142 714.12395,263.56535 714.125,263.84375 C 714.12865,264.72516 714.01188,265.37504 712.40625,265.75 C 711.46838,264.43227 709.9622,267.85297 708.78125,267.34375 C 708.26811,267.12215 708.15011,266.66975 708,266.34375 C 707.84744,266.01208 707.45823,265.5964 707.53125,265.25 C 707.66246,264.6287 709.86675,264.02779 710.6875,263.6875 C 711.28202,263.44079 712.3492,262.84871 713.25,262.8125 z M 724.4375,263.09375 C 726.1298,263.71142 727.0454,265.33274 727.75,266.34375 C 727.98514,266.68053 728.48009,267.15991 728.25,267.53125 C 727.92413,268.05729 725.54817,268.18932 725.03125,267.71875 C 724.38818,267.13347 724.45199,266.0394 724.4375,265.375 C 724.42127,264.61337 724.4375,263.8553 724.4375,263.09375 z M 741.34375,263.75 C 741.44405,263.7466 741.56326,263.75019 741.6875,263.78125 C 742.28218,263.92989 742.31554,264.51581 742.34375,264.8125 C 742.37434,265.13157 742.34339,265.43044 742.34375,265.75 C 741.69099,265.49547 741.03666,265.23564 740.71875,264.8125 C 740.51675,264.5435 740.64168,263.77383 741.34375,263.75 z M 731.8125,264.875 C 732.26261,264.90869 732.78275,265.13674 733.0625,265.25 C 734.31224,265.75531 734.83391,266.53617 733.25,267.0625 C 731.09125,267.77958 730.18745,265.3035 731.40625,264.90625 C 731.53203,264.86512 731.66247,264.86372 731.8125,264.875 z M 705.40625,266.0625 C 706.64987,265.86411 707.53584,267.70854 707.375,268.1875 C 707.15322,268.8474 703.97452,269.45603 702.90625,269.53125 C 701.82941,269.60671 702.52804,268.6883 702.6875,268.4375 C 703.21488,267.60898 703.59197,266.35158 705.40625,266.0625 z M 713.875,266.21875 L 714.21875,267.90625 L 711.03125,267.875 L 713.875,266.21875 z M 736.5,266.71875 L 741.28125,268.15625 L 741.59375,270.53125 L 740.5,275.46875 L 739.59375,277.5625 L 739.1875,274.53125 L 738.9375,273.15625 L 740.28125,272.8125 C 738.43766,271.69781 737.46221,270.79626 737.34375,269.21875 C 737.31504,268.83874 738.11992,268.40588 737.96875,268.09375 C 737.72033,267.58027 736.70904,267.31879 736.5,266.71875 z M 734.5,268.9375 C 734.60264,268.93439 734.70927,268.92995 734.8125,268.9375 C 736.25762,269.04315 737.19639,270.60344 736.09375,271 C 734.4327,271.59691 731.4995,269.60516 734.1875,268.96875 C 734.29873,268.94237 734.39736,268.94061 734.5,268.9375 z M 725.5625,271.5625 C 727.43477,271.63427 729.88273,272.29391 728.03125,272.96875 C 727.1798,273.27891 724.8193,272.96896 724,272.6875 C 723.37859,272.47415 723.51628,271.94079 724.0625,271.71875 C 724.37462,271.59174 724.93836,271.53856 725.5625,271.5625 z M 733.4375,272.25 C 734.69534,272.26458 736.20708,272.47619 736.6875,272.65625 C 738.29125,273.25715 737.875,274.9579 737.875,275.875 L 735.8125,273.5625 L 735.8125,274.15625 C 733.89755,274.17805 731.64703,273.80387 730.65625,272.8125 L 731.6875,273 C 731.16514,272.4089 732.17952,272.23534 733.4375,272.25 z M 723.0625,274.53125 L 725.6875,276.4375 L 724.6875,278.34375 L 722.34375,281.9375 L 720.0625,286.15625 L 719.28125,288.4375 L 719.25,280.0625 L 719.28125,275.28125 L 719.9375,277.78125 L 720.3125,278.8125 L 721.5,277.96875 L 723.0625,274.53125 z M 716.1875,276.8125 L 716.875,281.75 L 717.5625,288.25 L 716.625,285.5625 L 715.8125,280.25 L 716.1875,276.8125 z M 727.625,277.15625 C 727.7083,277.13716 727.78348,277.14325 727.875,277.15625 C 728.9429,277.30795 727.95973,278.42911 727.75,278.71875 C 726.86655,279.93867 726.29239,281.60204 724.09375,282.34375 C 724.488,280.98126 725.61113,279.62746 726.5,278.34375 C 726.64975,278.12756 727.04189,277.28988 727.625,277.15625 z M 693.8125,291.65625 L 689.28125,295.46875 L 685.625,302.125 L 685.53125,306.34375 L 674.15625,298.125 C 674.44318,299.08719 675.3973,299.9367 676.125,300.8125 C 678.51406,303.68678 682.54746,306.21281 686.21875,308.625 C 680.11387,306.77279 673.95014,305.05683 666.9375,304.5 C 664.12828,304.27656 661.14552,304.4375 658.3125,304.4375 L 669,306.71875 L 679.6875,308.875 L 685.1875,309.625 L 687.78125,309.96875 L 689.21875,311.9375 L 691.75,313.375 L 692.4375,314.96875 C 693.36877,314.61577 694.31678,314.21591 695.3125,313.78125 C 695.04938,313.53758 694.79195,313.27994 694.65625,313 C 693.93155,311.50428 693.82164,309.28714 695.53125,308.03125 L 693.46875,308.40625 L 691.75,307.65625 L 693.125,309.9375 L 693.8125,313.1875 L 691.59375,310.75 L 686.8125,307.28125 L 687.5,305.5625 L 689.78125,301.9375 L 691.96875,295.84375 L 693.8125,291.65625 z M 748.90625,292.25 L 748.71875,293.5625 C 749.11306,293.49944 749.51182,293.43488 749.90625,293.375 C 749.71505,292.95559 749.40923,292.57106 748.90625,292.25 z M 594.15625,297.28125 C 594.32036,300.12359 588.35779,309.73947 584.15625,313.6875 C 580.19072,308.84929 575.23004,304.14415 571.8125,301.25 C 574.24465,301.37971 575.77428,301.73499 579.96875,300.0625 C 582.12836,297.63823 590.92632,297.46773 594.15625,297.28125 z M 568.5625,302.3125 C 572.38617,305.88059 576.91031,311.21921 578.125,316.1875 C 568.05068,313.58624 554.86009,310.77364 543.125,307.40625 C 544.21383,307.25929 545.31983,307.24242 546.71875,307.84375 C 550.12346,307.64722 553.12233,306.43172 555.1875,306.3125 C 555.05113,303.95072 559.94705,303.36672 561.96875,303.25 C 563.26787,303.17499 566.6863,303.00645 568.5625,302.3125 z "
     id="trees_bg" />
  <g
     id="land">
    <path
       id="path2883"
       d="M 770.625,291.6875 C 748.87898,291.89415 724.23858,297.31036 706.40625,307.96875 C 672.70353,328.1129 672.34681,309.46134 632.34375,320.15625 C 624.91117,319.29102 611.16389,324.56455 601.9375,327.03125 C 593.20726,329.3653 594.31652,333.39328 590.78125,338.90625 C 583.15242,350.80286 554.14721,339.78465 543.40625,342.65625 C 541.59952,345.47369 531.72022,357.20807 528.875,357.96875 C 516.61672,361.24603 503.89766,358.29344 490.96875,361.75 C 483.64771,363.7073 479.56589,371.13656 470.375,373.59375 C 467.88378,377.47863 454.47803,379.14405 449.40625,380.5 C 443.01684,382.20823 435.1709,386.81679 428.875,388.5 C 421.35888,390.50946 415.41259,394.64974 408.375,396.53125 C 402.11885,398.20386 395.27184,402.54533 387.84375,404.53125 C 380.89185,406.38983 372.51284,398.48582 362.875,401.0625 C 362.69126,401.11163 345.49266,414.43718 344.25,416.375 L 344.25,417.90625 C 319.22267,412.58815 281.40705,417.23768 256.65625,432.03125 C 222.95355,452.17542 222.59685,433.5551 182.59375,444.25 C 176.74004,443.56858 166.98781,446.66303 158.59375,449.21875 C 169.76488,448.231 183.56193,447.51194 201.71875,447.3125 C 215.7335,444.82516 249.77418,445.73692 271.34375,445.5 C 291.75332,445.27583 294.19608,448.78816 307.84375,452.375 C 337.29417,460.11519 383.04585,444.27583 408.15625,444 C 415.13088,445.83307 448.91095,452.88554 455.5625,452.8125 C 484.21988,452.49772 506.52467,447.082 536.75,446.75 C 553.86511,446.56203 570.88842,451.54851 592.375,451.3125 C 601.99213,453.84009 631.01811,451.91149 642.875,451.78125 C 657.81223,451.61719 679.09393,453.47417 693.8125,453.3125 C 711.38376,453.11951 728.32868,454.99321 744.78125,454.8125 C 759.40697,454.65186 778.35325,456.53449 795.71875,456.34375 C 797.2201,456.32726 798.6265,456.20603 800,456.0625 L 800,295.34375 C 791.76379,292.81259 781.57316,291.58347 770.625,291.6875 z "
       style="fill:url(#linearGradient3321);fill-opacity:1;fill-rule:evenodd;stroke:none;stroke-width:1pt;stroke-linecap:butt;stroke-linejoin:miter;stroke-opacity:1" />
    <path
       id="path13532"
       d="M 16.75,362.125 C 11.052402,362.17716 5.4408012,362.51461 0,363.125 L 0,452.875 C 8.353757,453.01686 20.181621,453.81228 37.5625,455.34375 C 129.47322,463.44226 108.19905,448.33974 201.71875,447.3125 C 215.7335,444.82516 249.77418,445.73692 271.34375,445.5 C 291.75332,445.27583 294.19608,448.78816 307.84375,452.375 C 337.29417,460.11519 383.04585,444.27583 408.15625,444 C 415.13088,445.83307 448.91095,452.88554 455.5625,452.8125 C 463.78751,452.72215 471.48413,452.22119 479,451.53125 C 476.72938,450.85406 474.53528,450.28296 472.4375,449.96875 C 462.82541,448.52905 463.85942,443.47513 453.59375,441.9375 C 444.99471,440.64954 443.47678,435.1821 434.75,433.875 C 427.82283,432.83747 410.15104,433.08075 405.6875,427.6875 C 393.13437,425.80732 385.46794,415.34147 375.46875,413.84375 C 357.81018,411.19887 342.49251,418.22643 325.75,415.71875 C 321.86397,415.13668 305.39335,399.34881 302.15625,395.4375 C 287.48597,393.24022 254.0437,415.70308 240.375,399.1875 C 234.04074,391.53407 234.14264,385.25471 222.21875,383.46875 C 209.61714,381.58128 190.30514,376.3492 181.09375,379.15625 C 126.45666,370.97275 132.17058,399.31771 82.46875,375.53125 C 62.745588,366.09209 39.092637,361.92046 16.75,362.125 z "
       style="fill:url(#linearGradient3318);fill-opacity:1;fill-rule:evenodd;stroke:none;stroke-width:1pt;stroke-linecap:butt;stroke-linejoin:miter;stroke-opacity:1" />
    <path
       id="path14337"
       d="M 408.15625,444 C 383.04585,444.27583 337.29417,460.11519 307.84375,452.375 C 294.19608,448.78816 291.75332,445.27583 271.34375,445.5 C 249.77418,445.73692 215.7335,444.82516 201.71875,447.3125 C 108.19905,448.33974 129.47322,463.44226 37.5625,455.34375 C 20.181621,453.81228 8.353757,453.01686 0,452.875 L 0,600 L 800,600 L 800,456.0625 C 798.6265,456.20603 797.2201,456.32726 795.71875,456.34375 C 778.35325,456.53449 759.40697,454.65186 744.78125,454.8125 C 728.32868,454.99321 711.38376,453.11951 693.8125,453.3125 C 679.09393,453.47417 657.81223,451.61719 642.875,451.78125 C 631.01811,451.91149 601.99213,453.84009 592.375,451.3125 C 570.88842,451.54851 553.86511,446.56203 536.75,446.75 C 506.52467,447.082 484.21988,452.49772 455.5625,452.8125 C 448.91095,452.88554 415.13088,445.83307 408.15625,444 z "
       style="fill:url(#linearGradient3315);fill-opacity:1;fill-rule:evenodd;stroke:none;stroke-width:1pt;stroke-linecap:butt;stroke-linejoin:miter;stroke-opacity:1" />
  </g>
  <path
     style="fill:#000000;fill-opacity:1;fill-rule:evenodd;stroke:none;stroke-width:0.9999999pt;stroke-linecap:butt;stroke-linejoin:miter;stroke-opacity:1"
     d="M 222.82195,233.68264 C 224.81528,232.91236 226.84139,234.38721 226.96702,238.84249 C 227.20516,247.28704 228.49116,249.55071 236.66755,249.32011 C 243.8961,249.11623 247.52824,251.89458 247.7105,258.3554 C 254.63114,264.89637 238.67749,270.84872 238.78803,274.76551 C 239.28907,292.53643 262.94094,275.27101 263.32421,288.85432 C 263.57398,297.70896 219.47719,306.53938 219.65753,312.93367 C 223.6463,316.70368 264.9477,323.71293 268.34139,323.61721 C 274.38461,329.32882 280.47977,325.96275 285.84829,325.81134 C 291.06657,325.66418 299.4393,330.64055 299.29226,325.42229 C 299.11903,319.28441 305.38011,331.16666 306.20861,331.94972 C 310.1419,339.29124 315.22207,335.71436 322.43655,335.5109 C 333.34681,335.20317 324.76441,346.21308 317.37024,346.42159 C 310.12475,346.626 302.48462,344.01081 302.71632,352.22193 C 302.84247,356.6965 311.68544,351.95912 316.16007,351.8329 C 322.692,351.64872 328.09627,351.6399 320.40537,359.77737 C 315.73517,364.71861 286.90333,365.10705 268.18551,363.99283 C 290.79701,366.98299 334.906,374.16182 330.2439,374.2933 C 320.67696,374.56309 329.61437,381.01157 317.02624,381.36663 C 303.24057,381.75541 315.84237,389.31095 315.88485,390.82219 C 323.03493,390.6205 329.73229,387.74237 334.60192,387.60502 C 343.1147,387.36498 353.84808,389.37185 360.02855,382.8327 C 366.07252,382.66222 371.05224,385.21642 376.21256,385.07088 C 386.80962,384.77199 382.4558,389.47156 390.84121,380.59951 C 390.67696,374.77371 400.54298,392.4102 401.95892,393.74839 C 407.54744,393.59074 419.49634,396.51517 419.21489,386.53696 C 429.80436,386.23831 427.61244,380.13456 435.35475,387.45216 C 435.49546,392.44631 449.00495,403.45987 453.47688,409.77442 C 459.56078,421.12998 480.75615,423.42353 480.95455,430.45348 C 476.65113,430.57487 470.43284,433.43951 462.23748,433.67065 C 452.79001,424.74144 443.93004,427.51876 433.86977,427.80252 C 427.47072,427.98298 417.98396,419.9346 409.55927,424.44823 C 402.2973,424.65305 394.57101,422.1378 388.00809,422.32287 C 381.25704,422.51326 376.32001,421.36907 369.159,421.57106 C 363.62464,421.72713 355.40607,423.61481 349.70699,424.36267 C 345.45601,425.87459 339.54256,427.78734 337.72412,428.74595 C 303.68149,445.39942 304.55519,444.15829 269.17958,457.48056 C 263.217,459.8061 248.3219,471.95831 238.97163,478.09705 C 238.61914,480.67379 237.93084,484.96733 237.95238,485.72652 C 238.15061,492.75701 243.52436,498.96429 243.67679,504.36743 C 243.87874,511.5268 240.23458,518.78537 240.43652,525.94475 C 240.71287,535.74422 260.71135,540.29327 250.49505,540.58141 C 240.20741,540.87156 193.22598,540.62347 184.28531,535.59625 C 194.61552,535.30494 210.51001,512.96893 210.21879,502.63848 C 210.03175,496.01033 213.98338,457.7981 205.77171,439.61487 C 192.23159,422.14464 179.47194,410.5382 179.47932,410.80325 C 179.73221,419.76682 168.02345,416.4959 167.54062,416.50953 C 167.41445,412.03491 154.21705,421.30389 154.09089,416.82924 C 152.6562,416.86976 158.86962,403.32257 151.06171,403.54281 C 141.98542,403.79876 153.19636,414.18091 145.98943,414.38418 C 135.99115,414.6662 150.69017,426.34765 140.89784,426.62385 C 130.68556,426.91189 139.59583,397.12263 136.06281,397.22225 C 127.56877,397.46186 115.3451,409.89418 108.19101,410.09594 C 104.14483,406.27173 100.08911,408.4894 99.951565,403.61257 C 99.681702,394.04157 92.125984,394.43722 84.933777,394.64008 C 85.172975,403.11751 70.183758,393.68256 80.914782,393.37991 C 87.24341,393.20142 59.799863,381.31475 56.265239,377.97406 C 50.491675,378.13689 65.435517,370.20371 65.193676,361.63327 C 65.081583,357.65701 94.774312,361.30445 94.570517,354.07686 C 88.239659,354.2554 128.26269,349.3568 139.03393,359.53721 C 156.81484,357.69224 143.97291,344.08105 143.76122,336.57494 C 143.59435,330.65892 85.662812,323.46904 85.396132,314.01552 C 85.255746,309.03814 93.638434,304.3713 97.196863,304.27092 C 103.65211,304.08889 100.91689,312.25527 109.4553,312.01447 C 117.34635,311.79192 114.97242,315.75464 114.7477,307.78807 C 114.42971,296.51305 118.2901,299.67685 125.27545,299.47983 C 125.44707,305.56778 131.05767,314.97087 130.84363,307.38025 C 130.66686,301.11579 130.51831,294.83358 130.34178,288.56912 C 136.86545,288.38516 143.0681,285.5384 146.34342,285.44601 C 146.1374,278.14085 182.08385,285.78867 189.37102,285.58314 C 194.75247,285.43134 167.31378,265.21066 167.18595,260.67766 C 177.07323,260.3988 179.20036,258.89312 178.93658,249.54078 C 178.73133,242.2679 186.89937,245.05549 186.68011,237.28234 C 193.68263,237.08483 195.94869,232.82687 196.33053,246.36766 C 196.57104,254.89684 202.72351,252.94165 209.93735,252.7382 C 209.76511,246.63536 214.85112,241.80759 219.04197,241.68937 C 218.92108,237.40329 220.82842,234.45291 222.82195,233.68264 z M 202.45927,409.24426 C 202.66109,416.40462 219.63693,439.20544 231.02078,448.19552 C 239.9173,435.21183 251.37833,422.32797 259.32082,414.33573 C 253.25198,415.18565 249.49091,416.40264 238.61555,413.1152 C 232.67887,407.50422 210.59598,409.01478 202.45927,409.24426 z M 267.65756,416.27173 C 258.84256,426.04093 248.64181,440.41718 246.66894,453.13339 C 271.36111,444.43908 303.8431,434.57944 332.53323,423.60629 C 329.77208,423.47282 326.99439,423.68179 323.61744,425.49102 C 315.04047,425.73296 307.27469,423.28824 302.07224,423.43497 C 301.90447,417.48524 289.52034,417.05889 284.42734,417.20253 C 281.15448,417.29483 272.51043,417.60645 267.65756,416.27173 z "
     id="trees_fg" />
</svg>
