<?xml version="1.0" encoding="UTF-8" standalone="no"?>
<!DOCTYPE svg PUBLIC "-//W3C//DTD SVG 1.0//EN"
"http://www.w3.org/TR/2001/REC-SVG-20010904/DTD/svg10.dtd">
<!-- Created with Sodipodi ("http://www.sodipodi.com/") -->
<svg
   xmlns="http://www.w3.org/2000/svg"
   xmlns:xlink="http://www.w3.org/1999/xlink"
   version="1.0"
   x="0"
   y="0"
   width="160"
   height="160"
   id="svg559">
  <defs
     id="defs561">
    <linearGradient
       id="linearGradient588">
      <stop
         style="stop-color:#ffba00;stop-opacity:1.0000;"
         offset="0"
         id="stop589" />
      <stop
         style="stop-color:#a23f00;stop-opacity:1.0000;"
         offset="1"
         id="stop590" />
    </linearGradient>
    <linearGradient
       id="linearGradient584">
      <stop
         style="stop-color:#4c0000;stop-opacity:1.0000;"
         offset="0"
         id="stop585" />
      <stop
         style="stop-color:#000000;stop-opacity:0;"
         offset="1"
         id="stop586" />
    </linearGradient>
    <linearGradient
       id="linearGradient579">
      <stop
         style="stop-color:#6e6d6f;stop-opacity:1.0000;"
         offset="0"
         id="stop580" />
      <stop
         style="stop-color:#ffffff;stop-opacity:0;"
         offset="1"
         id="stop581" />
    </linearGradient>
    <linearGradient
       id="linearGradient574">
      <stop
         style="stop-color:#00003d;stop-opacity:1.0000;"
         offset="0"
         id="stop575" />
      <stop
         style="stop-color:#000000;stop-opacity:0;"
         offset="1"
         id="stop576" />
    </linearGradient>
    <linearGradient
       id="linearGradient568">
      <stop
         style="stop-color:#000000;stop-opacity:1.0000;"
         offset="0"
         id="stop569" />
      <stop
         style="stop-color:#ffffff;stop-opacity:1.0000;"
         offset="1"
         id="stop570" />
    </linearGradient>
    <linearGradient
       x1="-0.111111"
       y1="0.250000"
       x2="0.555558"
       y2="0.250000"
       id="linearGradient571"
       xlink:href="#linearGradient568"
       gradientTransform="scale(0.999998,1.000002)" />
    <linearGradient
       x1="0.147541"
       y1="0.601562"
       x2="1.081967"
       y2="0.570312"
       id="linearGradient573"
       xlink:href="#linearGradient574" />
    <linearGradient
       x1="8.490477e-2"
       y1="0.445309"
       x2="0.650943"
       y2="0.359375"
       id="linearGradient578"
       xlink:href="#linearGradient579" />
    <linearGradient
       x1="-5.587935e-9"
       y1="0.671875"
       x2="0.833333"
       y2="0.539062"
       id="linearGradient583"
       xlink:href="#linearGradient584" />
    <linearGradient
       x1="0"
       y1="0"
       x2="1.000000"
       y2="0"
       id="linearGradient587"
       xlink:href="#linearGradient588" />
  </defs>
  <g
     transform="matrix(0.520280,0,0,0.520280,-45.02619,149.4510)"
     style="font-size:12.000;"
     id="g591">
    <path
       d="M 142.5000 -241.2500 L 142.5000 -3.749998 L 171.2500 -3.749998 L 172.5000 -241.2500 L 142.5000 -241.2500 z "
       style="fill:url(#linearGradient571);fill-rule:evenodd;stroke:#000000;stroke-width:7.500000;"
       id="path567" />
    <path
       d="M 93.74999 -203.8877 C 146.2500 -161.3877 143.7500 -101.3878 142.5000 -50.13776 C 185 -56.38775 225 -65.13775 262.5000 -80.13775 C 251.6667 -131.8044 233.3333 -178.4710 203.7500 -227.6377 C 164.5833 -227.2210 129.1666 -219.3043 93.74999 -203.8877 z "
       style="fill:#0000ad;fill-rule:evenodd;stroke:#000000;stroke-width:7.500000;stroke-linejoin:bevel;"
       id="path563" />
    <path
       d="M 197.5000 -228.7499 C 233.7500 -187.4999 250 -131.2500 261.2500 -78.74995 C 285.8333 -102.5000 314.1667 -107.5000 342.5000 -112.5000 C 326.2500 -161.6666 308.7500 -210.8332 278.7500 -256.2499 C 249.1667 -253.3333 224.5833 -245.4166 197.5000 -228.7499 z "
       style="fill:#ffffff;fill-rule:evenodd;stroke:#000000;stroke-width:7.500000;stroke-linejoin:bevel;"
       id="path564" />
    <path
       d="M 268.7500 -256.2499 C 298.3333 -212.4999 321.6667 -161.2499 331.2500 -110.0000 C 355 -111.6667 375 -103.3333 387.5000 -96.24994 C 391.2500 -138.3332 392.5000 -180.4166 387.5000 -222.4999 C 369.1667 -246.2499 338.3333 -267.4999 268.7500 -256.2499 z "
       style="fill:#b10000;fill-rule:evenodd;stroke:#000000;stroke-width:7.500000;stroke-linejoin:bevel;"
       id="path565" />
    <path
       d="M 93.74999 -203.8877 C 146.2500 -161.3877 143.7500 -101.3878 142.5000 -50.13776 C 185 -56.38775 225 -65.13775 262.5000 -80.13775 C 251.6667 -131.8044 233.3333 -178.4710 203.7500 -227.6377 C 164.5833 -227.2210 129.1666 -219.3043 93.74999 -203.8877 z "
       style="fill:url(#linearGradient573);fill-rule:evenodd;stroke-width:7.500000;stroke-linejoin:bevel;"
       id="path572" />
    <path
       d="M 197.5000 -228.7499 C 233.7500 -187.4999 250 -131.2500 261.2500 -78.74995 C 285.8333 -102.5000 314.1667 -107.5000 342.5000 -112.5000 C 326.2500 -161.6666 308.7500 -210.8332 278.7500 -256.2499 C 249.1667 -253.3333 224.5833 -245.4166 197.5000 -228.7499 z "
       style="fill:url(#linearGradient578);fill-rule:evenodd;stroke-width:7.500000;stroke-linejoin:bevel;"
       id="path577" />
    <path
       d="M 197.5000 -186.2499 C 197.5000 -184.9999 231.2500 -112.5000 231.2500 -112.5000 L 248.7500 -118.7500 L 235 -146.2499 L 290 -136.2500 L 291.2500 -153.7499 L 246.2500 -163.7499 L 261.2500 -199.9999 L 243.7500 -208.7499 L 227.5000 -169.9999 L 215 -194.9999 L 197.5000 -186.2499 z "
       style="fill:url(#linearGradient587);fill-rule:evenodd;stroke-width:1.000000;"
       id="path566" />
    <path
       d="M 268.7500 -256.2499 C 298.3333 -212.4999 321.6667 -161.2499 331.2500 -110.0000 C 355 -111.6667 375 -103.3333 387.5000 -96.24994 C 391.2500 -138.3332 392.5000 -180.4166 387.5000 -222.4999 C 369.1667 -246.2499 338.3333 -267.4999 268.7500 -256.2499 z "
       style="fill:url(#linearGradient583);fill-rule:evenodd;stroke-width:7.500000;stroke-linejoin:bevel;"
       id="path582" />
  </g>
  <g
     transform="matrix(6.535171e-2,0,0,6.535223e-2,627.7579,2.745056)"
     style="font-size:12.000;"
     id="g637">
    <path
       d="M 142.5000 -241.2500 L 142.5000 -3.749998 L 171.2500 -3.749998 L 172.5000 -241.2500 L 142.5000 -241.2500 z "
       style="fill:url(#linearGradient571);fill-rule:evenodd;stroke:#000000;stroke-width:7.500000;"
       id="path638" />
    <path
       d="M 93.74999 -203.8877 C 146.2500 -161.3877 143.7500 -101.3878 142.5000 -50.13776 C 185 -56.38775 225 -65.13775 262.5000 -80.13775 C 251.6667 -131.8044 233.3333 -178.4710 203.7500 -227.6377 C 164.5833 -227.2210 129.1666 -219.3043 93.74999 -203.8877 z "
       style="fill:#0000ad;fill-rule:evenodd;stroke:#000000;stroke-width:7.500000;stroke-linejoin:bevel;"
       id="path639" />
    <path
       d="M 197.5000 -228.7499 C 233.7500 -187.4999 250 -131.2500 261.2500 -78.74995 C 285.8333 -102.5000 314.1667 -107.5000 342.5000 -112.5000 C 326.2500 -161.6666 308.7500 -210.8332 278.7500 -256.2499 C 249.1667 -253.3333 224.5833 -245.4166 197.5000 -228.7499 z "
       style="fill:#ffffff;fill-rule:evenodd;stroke:#000000;stroke-width:7.500000;stroke-linejoin:bevel;"
       id="path640" />
    <path
       d="M 268.7500 -256.2499 C 298.3333 -212.4999 321.6667 -161.2499 331.2500 -110.0000 C 355 -111.6667 375 -103.3333 387.5000 -96.24994 C 391.2500 -138.3332 392.5000 -180.4166 387.5000 -222.4999 C 369.1667 -246.2499 338.3333 -267.4999 268.7500 -256.2499 z "
       style="fill:#b10000;fill-rule:evenodd;stroke:#000000;stroke-width:7.500000;stroke-linejoin:bevel;"
       id="path641" />
    <path
       d="M 93.74999 -203.8877 C 146.2500 -161.3877 143.7500 -101.3878 142.5000 -50.13776 C 185 -56.38775 225 -65.13775 262.5000 -80.13775 C 251.6667 -131.8044 233.3333 -178.4710 203.7500 -227.6377 C 164.5833 -227.2210 129.1666 -219.3043 93.74999 -203.8877 z "
       style="fill:url(#linearGradient573);fill-rule:evenodd;stroke-width:7.500000;stroke-linejoin:bevel;"
       id="path642" />
    <path
       d="M 197.5000 -228.7499 C 233.7500 -187.4999 250 -131.2500 261.2500 -78.74995 C 285.8333 -102.5000 314.1667 -107.5000 342.5000 -112.5000 C 326.2500 -161.6666 308.7500 -210.8332 278.7500 -256.2499 C 249.1667 -253.3333 224.5833 -245.4166 197.5000 -228.7499 z "
       style="fill:url(#linearGradient578);fill-rule:evenodd;stroke-width:7.500000;stroke-linejoin:bevel;"
       id="path643" />
    <path
       d="M 197.5000 -186.2499 C 197.5000 -184.9999 231.2500 -112.5000 231.2500 -112.5000 L 248.7500 -118.7500 L 235 -146.2499 L 290 -136.2500 L 291.2500 -153.7499 L 246.2500 -163.7499 L 261.2500 -199.9999 L 243.7500 -208.7499 L 227.5000 -169.9999 L 215 -194.9999 L 197.5000 -186.2499 z "
       style="fill:url(#linearGradient587);fill-rule:evenodd;stroke-width:1.000000;"
       id="path644" />
    <path
       d="M 268.7500 -256.2499 C 298.3333 -212.4999 321.6667 -161.2499 331.2500 -110.0000 C 355 -111.6667 375 -103.3333 387.5000 -96.24994 C 391.2500 -138.3332 392.5000 -180.4166 387.5000 -222.4999 C 369.1667 -246.2499 338.3333 -267.4999 268.7500 -256.2499 z "
       style="fill:url(#linearGradient583);fill-rule:evenodd;stroke-width:7.500000;stroke-linejoin:bevel;"
       id="path645" />
  </g>
</svg>
