<?xml version="1.0" encoding="UTF-8" standalone="no"?>
<!DOCTYPE svg PUBLIC "-//W3C//DTD SVG 20010904//EN"
"http://www.w3.org/TR/2001/REC-SVG-20010904/DTD/svg10.dtd">
<svg
   height="60"
   width="60"
   _SVGFile__filename="oldscale/devices/blockdevice.svg"
   version="1.0"
   y="0"
   x="0"
   id="svg1"
   sodipodi:version="0.32"
   inkscape:version="0.40"
   sodipodi:docname="kids.svg"
   sodipodi:docbase="/home/danny/work/kde/klettres/icons/apps"
   xmlns="http://www.w3.org/2000/svg"
   xmlns:cc="http://web.resource.org/cc/"
   xmlns:inkscape="http://www.inkscape.org/namespaces/inkscape"
   xmlns:sodipodi="http://sodipodi.sourceforge.net/DTD/sodipodi-0.dtd"
   xmlns:rdf="http://www.w3.org/1999/02/22-rdf-syntax-ns#"
   xmlns:dc="http://purl.org/dc/elements/1.1/"
   xmlns:xlink="http://www.w3.org/1999/xlink">
  <sodipodi:namedview
     id="base"
     pagecolor="#ffffff"
     bordercolor="#666666"
     borderopacity="1.0"
     inkscape:pageopacity="0.0"
     inkscape:pageshadow="2"
     inkscape:zoom="4.2152977"
     inkscape:cx="42.000552"
     inkscape:cy="-2.8541368"
     inkscape:window-width="1024"
     inkscape:window-height="698"
     inkscape:current-layer="svg1"
     inkscape:window-x="0"
     inkscape:window-y="0" />
  <defs
     id="defs3">
    <linearGradient
       id="linearGradient772">
      <stop
         style="stop-color: #000000;stop-opacity: 1.0;"
         id="stop773"
         offset="0" />
      <stop
         style="stop-color:#ffffff;stop-opacity:1;"
         id="stop774"
         offset="1" />
    </linearGradient>
    <linearGradient
       xlink:href="#linearGradient772"
       id="linearGradient775" />
  </defs>
  <path
     style="font-size:12.000000;fill:none;fill-opacity:1.0000000;fill-rule:evenodd;stroke:#ffffff;stroke-width:8.1249981;stroke-linecap:round;stroke-linejoin:round;stroke-miterlimit:4.0000000;stroke-opacity:1.0000000"
     d="M 26.134364,9.1442671 L 17.187286,17.873124 C 17.187286,17.873124 16.969064,18.349107 16.969064,18.652486 L 16.969064,25.947317 L 13.882790,25.947317 L 5.1539325,34.426777 C 5.1195628,34.457902 5.0915367,34.485934 5.0604091,34.520301 C 5.0604091,34.520301 4.6863152,35.152160 4.6863152,35.455536 L 4.6863152,49.452880 C 4.6863152,50.231225 5.3108216,50.855733 6.0891672,50.855733 L 20.086513,50.855733 L 29.688256,42.095702 L 29.688256,49.452880 C 29.688256,50.231225 30.312762,50.855733 31.091107,50.855733 L 45.611398,50.855733 L 55.313685,41.503386 L 55.313685,25.947317 L 42.616366,25.947317 L 42.594493,9.1442671 L 26.134364,9.1442671 z "
     id="path1751"
     sodipodi:nodetypes="cccccccccccccccccccc" />
  <g
     id="g1740"
     transform="matrix(0.997826,0.000000,0.000000,0.997826,0.787392,-1.480010)">
    <path
       style="font-size:12.000000;fill:#ff0100;fill-opacity:1.0000000;fill-rule:evenodd;stroke:#000000;stroke-width:3.6133213;stroke-linecap:round;stroke-linejoin:round;stroke-opacity:1.0000000;"
       d="M 23.691740,56.795720 L 34.729550,46.123400 L 34.729550,28.433660 L 23.764840,38.813590 L 23.691740,56.795720 z "
       transform="matrix(0.866741,0.000000,0.000000,0.866741,-0.578500,3.145318)"
       id="path653" />
    <path
       style="font-size:12.000000;fill:#ff0100;fill-opacity:1.0000000;fill-rule:evenodd;stroke:#000000;stroke-width:3.6133213;stroke-linecap:round;stroke-linejoin:round;stroke-opacity:1.0000000;"
       d="M 5.3441170,38.228800 L 15.724050,28.141270 L 34.729550,28.141270 L 23.618640,39.032880 L 5.3441170,38.228800 z "
       transform="matrix(0.866741,0.000000,0.000000,0.866741,-0.578500,3.145318)"
       id="path654" />
    <path
       style="font-size:12.000000;fill:#ff0100;fill-opacity:1.0000000;fill-rule:evenodd;stroke:#000000;stroke-width:3.6133213;stroke-linecap:round;stroke-linejoin:round;stroke-opacity:1.0000000;"
       d="M 6.7339670,37.511470 C 5.8337780,37.511470 5.1090760,38.236170 5.1090760,39.136360 L 5.1090760,55.321330 C 5.1090760,56.221520 5.8337780,56.946220 6.7339670,56.946220 L 22.918930,56.946220 C 23.819120,56.946220 24.543820,56.221520 24.543820,55.321330 L 24.543820,39.136360 C 24.543820,38.236170 23.819120,37.511470 22.918930,37.511470 L 6.7339670,37.511470 z "
       transform="matrix(0.866741,0.000000,0.000000,0.866741,-0.578500,3.145318)"
       id="rect648" />
    <path
       style="font-size:12.000000;fill:#2b43ba;fill-opacity:0.94117647;fill-rule:evenodd;stroke:#000000;stroke-width:3.6133213;stroke-linecap:round;stroke-linejoin:round;stroke-opacity:1.0000000;"
       d="M 23.691740,56.795720 L 34.729550,46.123400 L 34.729550,28.433660 L 23.764840,38.813590 L 23.691740,56.795720 z "
       transform="matrix(0.866741,0.000000,0.000000,0.866741,24.48389,3.145318)"
       id="path664" />
    <path
       style="font-size:12.000000;fill:#2b43ba;fill-opacity:0.94117647;fill-rule:evenodd;stroke:#000000;stroke-width:3.6133213;stroke-linecap:round;stroke-linejoin:round;stroke-opacity:1.0000000;"
       d="M 5.3441170,38.228800 L 15.724050,28.141270 L 34.729550,28.141270 L 23.618640,39.032880 L 5.3441170,38.228800 z "
       transform="matrix(0.866741,0.000000,0.000000,0.866741,24.48389,3.145318)"
       id="path665" />
    <path
       style="font-size:12.000000;fill:#2b43ba;fill-opacity:1.0000000;fill-rule:evenodd;stroke:#000000;stroke-width:3.6133213;stroke-linecap:round;stroke-linejoin:round;stroke-opacity:1.0000000;"
       d="M 6.7339670,37.511470 C 5.8337780,37.511470 5.1090760,38.236170 5.1090760,39.136360 L 5.1090760,55.321330 C 5.1090760,56.221520 5.8337780,56.946220 6.7339670,56.946220 L 22.918930,56.946220 C 23.819120,56.946220 24.543820,56.221520 24.543820,55.321330 L 24.543820,39.136360 C 24.543820,38.236170 23.819120,37.511470 22.918930,37.511470 L 6.7339670,37.511470 z "
       transform="matrix(0.866741,0.000000,0.000000,0.866741,24.48389,3.145318)"
       id="rect666" />
    <path
       style="font-size:12.000000;fill:#30e908;fill-opacity:1.0000000;fill-rule:evenodd;stroke:#000000;stroke-width:3.6133213;stroke-linecap:round;stroke-linejoin:round;stroke-opacity:1.0000000;"
       d="M 23.691740,56.795720 L 34.729550,46.123400 L 34.729550,28.433660 L 23.764840,38.813590 L 23.691740,56.795720 z "
       transform="matrix(0.866741,0.000000,0.000000,0.866741,11.72875,-13.69905)"
       id="path660" />
    <path
       style="font-size:12.000000;fill:#30e908;fill-opacity:1.0000000;fill-rule:evenodd;stroke:#000000;stroke-width:3.6133213;stroke-linecap:round;stroke-linejoin:round;stroke-opacity:1.0000000;"
       d="M 5.3441170,38.228800 L 15.724050,28.141270 L 34.729550,28.141270 L 23.618640,39.032880 L 5.3441170,38.228800 z "
       transform="matrix(0.866741,0.000000,0.000000,0.866741,11.72875,-13.69905)"
       id="path661" />
    <path
       style="font-size:12.000000;fill:#30e908;fill-opacity:1.0000000;fill-rule:evenodd;stroke:#000000;stroke-width:3.6133213;stroke-linecap:round;stroke-linejoin:round;stroke-opacity:1.0000000;"
       d="M 6.7339670,37.511470 C 5.8337780,37.511470 5.1090760,38.236170 5.1090760,39.136360 L 5.1090760,55.321330 C 5.1090760,56.221520 5.8337780,56.946220 6.7339670,56.946220 L 22.918930,56.946220 C 23.819120,56.946220 24.543820,56.221520 24.543820,55.321330 L 24.543820,39.136360 C 24.543820,38.236170 23.819120,37.511470 22.918930,37.511470 L 6.7339670,37.511470 z "
       transform="matrix(0.866741,0.000000,0.000000,0.866741,11.72875,-13.69905)"
       id="rect662" />
  </g>
  <metadata
     id="metadata17">
    <RDF
       id="RDF18">
      <Work
         about=""
         id="Work19">
        <title
           id="title20">Part of the Flat Icon Collection (Thu Aug 26 14:40:13 2004)</title>
        <description
           id="description22" />
        <subject
           id="subject23">
          <Bag
             id="Bag24">
            <li
               id="li25" />
          </Bag>
        </subject>
        <publisher
           id="publisher26">
          <Agent
             about=""
             id="Agent27">
            <title
               id="title28" />
          </Agent>
        </publisher>
        <creator
           id="creator29">
          <Agent
             about=""
             id="Agent30">
            <title
               id="title31">Danny Allen</title>
          </Agent>
        </creator>
        <rights
           id="rights33">
          <Agent
             about=""
             id="Agent34">
            <title
               id="title35">Danny Allen</title>
          </Agent>
        </rights>
        <date
           id="date37" />
        <format
           id="format38">image/svg+xml</format>
        <type
           id="type40"
           resource="http://purl.org/dc/dcmitype/StillImage" />
        <license
           id="license41"
           resource="http://creativecommons.org/licenses/LGPL/2.1/">
          <date
             id="date42" />
        </license>
        <language
           id="language43">en</language>
      </Work>
    </RDF>
    <rdf:RDF
       id="RDF45">
      <cc:Work
         rdf:about=""
         id="Work46">
        <dc:format
           id="format47">image/svg+xml</dc:format>
        <dc:type
           id="type49"
           rdf:resource="http://purl.org/dc/dcmitype/StillImage" />
      </cc:Work>
    </rdf:RDF>
  </metadata>
</svg>
